<svg width="130" height="77" viewBox="0 0 130 77" fill="none" xmlns="http://www.w3.org/2000/svg">
<path d="M44.4243 73.6807C47.325 73.6807 50.1069 72.5284 52.158 70.4773C54.2091 68.4262 55.3614 65.6444 55.3614 62.7437C55.3614 59.843 54.2091 57.0611 52.158 55.01C50.1069 52.9589 47.325 51.8066 44.4243 51.8066C41.5237 51.8066 38.7418 52.9589 36.6907 55.01C34.6396 57.0611 33.4873 59.843 33.4873 62.7437C33.4873 65.6444 34.6396 68.4262 36.6907 70.4773C38.7418 72.5284 41.5237 73.6807 44.4243 73.6807V73.6807ZM99.1095 73.6807C102.01 73.6807 104.792 72.5284 106.843 70.4773C108.894 68.4262 110.047 65.6444 110.047 62.7437C110.047 59.843 108.894 57.0611 106.843 55.01C104.792 52.9589 102.01 51.8066 99.1095 51.8066C96.2088 51.8066 93.427 52.9589 91.3759 55.01C89.3248 57.0611 88.1725 59.843 88.1725 62.7437C88.1725 65.6444 89.3248 68.4262 91.3759 70.4773C93.427 72.5284 96.2088 73.6807 99.1095 73.6807V73.6807Z" stroke="black" stroke-width="5.18566" stroke-miterlimit="1.5" stroke-linecap="round" stroke-linejoin="round"/>
<path d="M31.5731 62.744H20.3627C19.9318 62.744 19.5051 62.6592 19.1071 62.4943C18.709 62.3294 18.3473 62.0877 18.0426 61.783C17.7379 61.4783 17.4962 61.1166 17.3313 60.7185C17.1664 60.3205 17.0816 59.8938 17.0816 59.4629V32.6672M55.6346 62.744H82.7038V5.87144C82.7038 5.00124 82.3581 4.16667 81.7428 3.55135C81.1274 2.93602 80.2929 2.59033 79.4227 2.59033H6.14453L55.6346 62.744Z" stroke="black" stroke-width="5.18566" stroke-linecap="round"/>
<path d="M11.6133 18.9956H33.4874" stroke="black" stroke-width="5.18566" stroke-linecap="round" stroke-linejoin="round"/>
<path d="M82.7041 62.7437H88.1726M82.7041 18.9956H113.382C114.017 18.9958 114.637 19.1797 115.169 19.5252C115.701 19.8707 116.121 20.363 116.379 20.9424L126.168 42.9696C126.354 43.3878 126.451 43.8405 126.452 44.2984V59.4626C126.452 59.8935 126.367 60.3202 126.202 60.7183C126.038 61.1163 125.796 61.4781 125.491 61.7827C125.187 62.0874 124.825 62.3291 124.427 62.494C124.029 62.6589 123.602 62.7437 123.171 62.7437H112.781L82.7041 18.9956Z" stroke="black" stroke-width="5.18566" stroke-linecap="round"/>
</svg>
