<svg width="104" height="104" viewBox="0 0 104 104" fill="none" xmlns="http://www.w3.org/2000/svg">
<g clip-path="url(#clip0_102_427)">
<path d="M89.0132 63.6931C88.5188 60.258 85.8666 57.58 82.4521 56.7818C69.1806 53.6712 65.8537 46.0286 65.2923 37.5517C62.9388 37.1139 58.7518 36.6401 51.6448 36.6401C44.5378 36.6401 40.3509 37.1139 37.9973 37.5517C37.436 46.0286 34.1091 53.6712 20.8375 56.7818C17.4231 57.5852 14.7708 60.258 14.2764 63.6931L11.7169 81.4194C10.8156 87.6612 15.3991 93.2901 21.7748 93.2901H81.5148C87.8854 93.2901 92.474 87.6612 91.5728 81.4194L89.0132 63.6931ZM51.6448 80.3739C44.4606 80.3739 38.6359 74.6059 38.6359 67.4989C38.6359 60.3919 44.4606 54.6239 51.6448 54.6239C58.8291 54.6239 64.6537 60.3919 64.6537 67.4989C64.6537 74.6059 58.8239 80.3739 51.6448 80.3739ZM102.887 31.4901C102.764 23.7651 83.101 10.8953 51.6448 10.8901C20.1835 10.8953 0.520781 23.7651 0.402331 31.4901C0.283881 39.2151 0.510482 49.2679 13.4576 47.5942C28.6037 45.632 27.6716 40.343 27.6716 32.7828C27.6716 27.5092 39.9904 26.2371 51.6448 26.2371C63.2993 26.2371 75.6129 27.5092 75.6181 32.7828C75.6181 40.343 74.6859 45.632 89.8321 47.5942C102.774 49.2679 103.006 39.2151 102.887 31.4901Z" fill="#282A37"/>
</g>
<defs>
<clipPath id="clip0_102_427">
<rect width="103" height="103" fill="white" transform="translate(0.144531 0.590332)"/>
</clipPath>
</defs>
</svg>
